<?xml version="1.0" encoding="UTF-8"?>
<svg id="Layer_1" data-name="Layer 1" xmlns="http://www.w3.org/2000/svg" viewBox="0 0 1920 258">
  <defs>
    <style>
      .cls-1 {
        fill: #fff;
      }

      .cls-2 {
        fill: #d4af37;
      }
    </style>
  </defs>
  <g>
    <rect class="cls-2" x="167.42" y="54.32" width="29.87" height="149.35"/>
    <rect class="cls-2" x="77.81" y="54.32" width="29.87" height="149.35"/>
    <g>
      <rect class="cls-2" x="33" y="54.32" width="29.87" height="29.87"/>
      <rect class="cls-2" x="33" y="95.88" width="29.87" height="107.79"/>
    </g>
    <rect class="cls-2" x="122.61" y="129" width="29.87" height="29.87"/>
    <rect class="cls-2" x="122.61" y="54.32" width="29.87" height="59.74"/>
    <rect class="cls-2" x="122.61" y="173.81" width="29.87" height="29.87"/>
  </g>
  <g>
    <path class="cls-1" d="M333.1,198.17V57.83h61.15c8.28,0,15.9,1.97,22.85,5.91,6.95,3.94,12.46,9.29,16.54,16.04,4.07,6.75,6.11,14.33,6.11,22.75s-2.04,15.37-6.11,22.05c-4.08,6.69-9.56,12.03-16.44,16.04-6.88,4.01-14.53,6.01-22.95,6.01h-35.69v51.52h-25.46ZM358.56,123.79h35.89c3.74,0,7.08-.9,10.02-2.71,2.94-1.8,5.21-4.28,6.82-7.42,1.6-3.14,2.41-6.65,2.41-10.53,0-4.41-1-8.22-3.01-11.43-2.01-3.21-4.81-5.74-8.42-7.62-3.61-1.87-7.75-2.81-12.43-2.81h-31.27v42.5ZM414.69,198.17l-35.69-63.35,26.66-5.01,39.7,68.56-30.67-.2Z"/>
    <path class="cls-1" d="M457.6,198.17l54.73-140.33h24.26l54.33,140.33h-26.86l-30.27-80.19c-.53-1.47-1.37-3.94-2.51-7.42-1.14-3.47-2.37-7.28-3.71-11.43-1.34-4.14-2.57-7.95-3.71-11.43-1.14-3.47-1.9-6.08-2.3-7.82l5.01-.2c-.8,2.67-1.74,5.71-2.81,9.12-1.07,3.41-2.2,6.92-3.41,10.53-1.2,3.61-2.41,7.09-3.61,10.42-1.2,3.34-2.27,6.35-3.21,9.02l-30.07,79.39h-25.86ZM482.46,165.89l8.82-22.45h63.95l9.82,22.45h-82.6Z"/>
    <path class="cls-1" d="M634.42,198.17v-69.97l1.4,9.82-56.73-80.19h30.47l43.1,61.95-9.02-.6,38.89-61.35h29.27l-54.33,82.4,3.01-13.63v71.57h-26.06Z"/>
    <path class="cls-1" d="M699.97,198.17l54.73-140.33h24.26l54.33,140.33h-26.86l-30.27-80.19c-.54-1.47-1.37-3.94-2.51-7.42-1.14-3.47-2.37-7.28-3.71-11.43-1.34-4.14-2.57-7.95-3.71-11.43-1.14-3.47-1.9-6.08-2.3-7.82l5.01-.2c-.8,2.67-1.74,5.71-2.81,9.12-1.07,3.41-2.21,6.92-3.41,10.53-1.2,3.61-2.41,7.09-3.61,10.42-1.2,3.34-2.27,6.35-3.21,9.02l-30.07,79.39h-25.86ZM724.83,165.89l8.82-22.45h63.95l9.82,22.45h-82.6Z"/>
    <path class="cls-1" d="M855.54,198.17V57.83h23.26l81.8,109.86-4.41,1c-.94-6.15-1.7-12.7-2.31-19.65-.6-6.95-1.04-14.5-1.3-22.65-.27-8.15-.4-17.04-.4-26.66v-41.9h25.66v140.33h-23.66l-81.8-108.06,4.81-1.4c.93,9.49,1.67,17.28,2.2,23.35.53,6.08.93,11.06,1.2,14.94.27,3.88.43,7.09.5,9.62.06,2.54.1,4.95.1,7.22v54.33h-25.66Z"/>
    <path class="cls-1" d="M1058.83,198.17l54.73-140.33h24.26l54.33,140.33h-26.86l-30.27-80.19c-.54-1.47-1.37-3.94-2.51-7.42-1.14-3.47-2.38-7.28-3.71-11.43-1.34-4.14-2.58-7.95-3.71-11.43-1.14-3.47-1.91-6.08-2.31-7.82l5.01-.2c-.8,2.67-1.74,5.71-2.81,9.12-1.07,3.41-2.2,6.92-3.41,10.53-1.2,3.61-2.41,7.09-3.61,10.42-1.2,3.34-2.27,6.35-3.21,9.02l-30.07,79.39h-25.86ZM1083.69,165.89l8.82-22.45h63.95l9.82,22.45h-82.6Z"/>
    <path class="cls-1" d="M1214.4,198.17V57.83h25.86v116.28h64.75v24.06h-90.62Z"/>
    <path class="cls-1" d="M1335.29,198.17V57.83h23.26l81.79,109.86-4.41,1c-.94-6.15-1.71-12.7-2.31-19.65-.6-6.95-1.04-14.5-1.3-22.65-.27-8.15-.4-17.04-.4-26.66v-41.9h25.66v140.33h-23.66l-81.8-108.06,4.81-1.4c.93,9.49,1.67,17.28,2.21,23.35.53,6.08.93,11.06,1.2,14.94.27,3.88.43,7.09.5,9.62.06,2.54.1,4.95.1,7.22v54.33h-25.66Z"/>
    <path class="cls-1" d="M1528.15,200.17c-4.68,0-9.16-.6-13.43-1.8-4.28-1.2-8.22-2.91-11.83-5.11s-6.85-4.88-9.72-8.02c-2.88-3.14-5.31-6.65-7.32-10.53l15.64-16.24c3.47,4.68,6.55,8.29,9.22,10.83,2.67,2.54,5.28,4.28,7.82,5.21,2.54.94,5.34,1.4,8.42,1.4,4.27,0,8.05-1,11.33-3.01,3.27-2,5.78-4.74,7.52-8.22,1.74-3.47,2.61-7.42,2.61-11.83v-71.77h-25.66v-23.26h72.98v23.26h-21.65v74.38c0,6.55-1.14,12.53-3.41,17.94-2.27,5.41-5.45,10.12-9.52,14.13-4.08,4.01-8.92,7.12-14.53,9.32-5.61,2.21-11.76,3.31-18.44,3.31Z"/>
    <path class="cls-1" d="M1625.58,198.17V57.83h91.62v23.66h-65.96v93.02h66.76v23.66h-92.42ZM1637.61,138.02v-23.26h69.36v23.26h-69.36Z"/>
    <path class="cls-1" d="M1750.68,198.17V57.83h24.46l51.12,83-14.03-.2,51.52-82.8h23.25v140.33h-25.46v-52.52c0-12.16.3-23.09.9-32.78.6-9.69,1.64-19.28,3.11-28.77l3.21,8.42-43.5,67.36h-13.43l-42.3-66.56,2.81-9.22c1.47,8.96,2.51,18.18,3.11,27.67.6,9.49.9,20.78.9,33.88v52.52h-25.66Z"/>
  </g>
</svg>