<?xml version="1.0" encoding="UTF-8"?>
<svg id="Layer_1" data-name="Layer 1" xmlns="http://www.w3.org/2000/svg" viewBox="0 0 1124 362">
  <defs>
    <style>
      .cls-1 {
        fill: #fff;
      }

      .cls-2 {
        fill: #d4af37;
      }
    </style>
  </defs>
  <g>
    <g>
      <path class="cls-1" d="M352.01,160v-63.33h27.59c3.74,0,7.18.89,10.31,2.67,3.14,1.78,5.62,4.19,7.46,7.24,1.84,3.05,2.76,6.47,2.76,10.27s-.92,6.94-2.76,9.95c-1.84,3.02-4.31,5.43-7.42,7.24-3.11,1.81-6.56,2.71-10.36,2.71h-16.1v23.25h-11.49ZM363.5,126.44h16.2c1.69,0,3.2-.41,4.52-1.22,1.33-.81,2.35-1.93,3.08-3.35.72-1.42,1.08-3,1.08-4.75,0-1.99-.45-3.71-1.36-5.16-.91-1.45-2.17-2.59-3.8-3.44-1.63-.84-3.5-1.27-5.61-1.27h-14.11v19.18ZM388.84,160l-16.1-28.59,12.03-2.26,17.91,30.94-13.84-.09Z"/>
      <path class="cls-1" d="M408.2,160l24.7-63.33h10.95l24.52,63.33h-12.12l-13.66-36.19c-.24-.66-.62-1.78-1.13-3.35-.51-1.57-1.07-3.29-1.67-5.16-.6-1.87-1.16-3.59-1.67-5.16-.51-1.57-.86-2.74-1.04-3.53l2.26-.09c-.36,1.21-.78,2.58-1.27,4.12-.48,1.54-1,3.12-1.54,4.75-.54,1.63-1.08,3.2-1.63,4.7-.54,1.51-1.03,2.87-1.45,4.07l-13.57,35.83h-11.67ZM419.41,145.44l3.98-10.13h28.86l4.43,10.13h-37.27Z"/>
      <path class="cls-1" d="M487.99,160v-31.57l.63,4.43-25.6-36.19h13.75l19.45,27.96-4.07-.27,17.55-27.68h13.21l-24.52,37.18,1.36-6.15v32.3h-11.76Z"/>
      <path class="cls-1" d="M517.58,160l24.7-63.33h10.95l24.52,63.33h-12.12l-13.66-36.19c-.24-.66-.62-1.78-1.13-3.35-.51-1.57-1.07-3.29-1.67-5.16-.6-1.87-1.16-3.59-1.67-5.16-.51-1.57-.86-2.74-1.04-3.53l2.26-.09c-.36,1.21-.78,2.58-1.27,4.12-.48,1.54-1,3.12-1.54,4.75-.54,1.63-1.08,3.2-1.63,4.7-.54,1.51-1.03,2.87-1.45,4.07l-13.57,35.83h-11.67ZM528.8,145.44l3.98-10.13h28.86l4.43,10.13h-37.27Z"/>
      <path class="cls-1" d="M587.78,160v-63.33h10.49l36.91,49.58-1.99.45c-.42-2.77-.77-5.73-1.04-8.87-.27-3.14-.47-6.54-.59-10.22-.12-3.68-.18-7.69-.18-12.03v-18.91h11.58v63.33h-10.68l-36.91-48.76,2.17-.63c.42,4.28.75,7.8,1,10.54.24,2.75.42,4.99.54,6.74.12,1.75.2,3.2.23,4.34.03,1.15.04,2.23.04,3.26v24.52h-11.58Z"/>
      <path class="cls-1" d="M679.52,160l24.7-63.33h10.95l24.52,63.33h-12.12l-13.66-36.19c-.24-.66-.62-1.78-1.13-3.35-.51-1.57-1.07-3.29-1.67-5.16-.6-1.87-1.16-3.59-1.67-5.16-.51-1.57-.86-2.74-1.04-3.53l2.26-.09c-.36,1.21-.78,2.58-1.27,4.12-.48,1.54-1,3.12-1.54,4.75-.54,1.63-1.08,3.2-1.63,4.7-.54,1.51-1.03,2.87-1.45,4.07l-13.57,35.83h-11.67ZM690.74,145.44l3.98-10.13h28.86l4.43,10.13h-37.27Z"/>
      <path class="cls-1" d="M749.73,160v-63.33h11.67v52.47h29.22v10.86h-40.89Z"/>
      <path class="cls-1" d="M804.28,160v-63.33h10.49l36.91,49.58-1.99.45c-.42-2.77-.77-5.73-1.04-8.87-.27-3.14-.47-6.54-.59-10.22-.12-3.68-.18-7.69-.18-12.03v-18.91h11.58v63.33h-10.68l-36.91-48.76,2.17-.63c.42,4.28.75,7.8,1,10.54.24,2.75.42,4.99.54,6.74.12,1.75.2,3.2.23,4.34.03,1.15.04,2.23.04,3.26v24.52h-11.58Z"/>
      <path class="cls-1" d="M891.32,160.91c-2.11,0-4.13-.27-6.06-.81-1.93-.54-3.71-1.31-5.34-2.31-1.63-1-3.09-2.2-4.39-3.62-1.3-1.42-2.4-3-3.3-4.75l7.06-7.33c1.57,2.11,2.96,3.74,4.16,4.89,1.21,1.15,2.38,1.93,3.53,2.35,1.15.42,2.41.63,3.8.63,1.93,0,3.63-.45,5.11-1.36,1.48-.9,2.61-2.14,3.39-3.71.78-1.57,1.18-3.35,1.18-5.34v-32.39h-11.58v-10.49h32.93v10.49h-9.77v33.57c0,2.96-.51,5.65-1.54,8.1-1.03,2.44-2.46,4.57-4.3,6.38-1.84,1.81-4.03,3.21-6.56,4.21-2.53,1-5.31,1.49-8.32,1.49Z"/>
      <path class="cls-1" d="M935.29,160v-63.33h41.35v10.68h-29.77v41.98h30.13v10.68h-41.71ZM940.72,132.86v-10.5h31.3v10.5h-31.3Z"/>
      <path class="cls-1" d="M991.74,160v-63.33h11.04l23.07,37.46-6.33-.09,23.25-37.36h10.49v63.33h-11.49v-23.7c0-5.49.14-10.42.41-14.79.27-4.37.74-8.7,1.4-12.98l1.45,3.8-19.63,30.4h-6.06l-19.09-30.04,1.27-4.16c.66,4.04,1.13,8.2,1.4,12.49.27,4.28.41,9.38.41,15.29v23.7h-11.58Z"/>
    </g>
    <g>
      <path class="cls-1" d="M370.02,264.42l-24.61-63.33h5.43l19.27,50.12c.48,1.21.89,2.29,1.22,3.26.33.97.65,1.84.95,2.62.3.78.56,1.48.77,2.08.21.6.38,1.15.5,1.63h-1.54c.18-.6.42-1.36.72-2.26.3-.9.68-1.96,1.13-3.17.45-1.21.95-2.56,1.49-4.07l18.82-50.21h5.61l-24.79,63.33h-4.98Z"/>
      <path class="cls-1" d="M407.02,264.42v-4.43h11.22v-54.46h-11.22v-4.43h27.32v4.43h-11.31v54.46h11.31v4.43h-27.32Z"/>
      <path class="cls-1" d="M449.09,264.42v-63.33h23.16c4.1,0,7.95.78,11.54,2.35,3.59,1.57,6.72,3.75,9.41,6.56,2.68,2.8,4.78,6.14,6.29,10,1.51,3.86,2.26,8.11,2.26,12.76s-.75,8.81-2.26,12.67c-1.51,3.86-3.6,7.21-6.29,10.04-2.68,2.84-5.82,5.04-9.41,6.6-3.59,1.57-7.43,2.35-11.54,2.35h-23.16ZM453.79,260.62l-.63-.81h18.64c3.5,0,6.77-.66,9.82-1.99,3.04-1.33,5.71-3.2,8.01-5.61,2.29-2.41,4.08-5.28,5.38-8.59,1.3-3.32,1.95-6.94,1.95-10.86s-.65-7.54-1.95-10.86c-1.3-3.32-3.09-6.18-5.38-8.6-2.29-2.41-4.96-4.28-8.01-5.61-3.05-1.33-6.32-1.99-9.82-1.99h-18.82l.81-.9v55.82Z"/>
      <path class="cls-1" d="M516.04,264.42v-63.33h37v4.61h-32.3v54.1h31.85v4.61h-36.55ZM518.39,234.03v-4.61h29.49v4.61h-29.49Z"/>
      <path class="cls-1" d="M595.02,265.33c-4.52,0-8.67-.8-12.44-2.4-3.77-1.6-7.06-3.85-9.86-6.74s-4.96-6.32-6.47-10.27c-1.51-3.95-2.26-8.31-2.26-13.07s.75-9.14,2.26-13.12c1.51-3.98,3.66-7.43,6.47-10.36,2.8-2.92,6.09-5.19,9.86-6.79,3.77-1.6,7.92-2.4,12.44-2.4s8.69.8,12.49,2.4c3.8,1.6,7.09,3.86,9.86,6.79,2.77,2.93,4.93,6.38,6.47,10.36s2.31,8.32,2.31,13.03-.77,9.14-2.31,13.12-3.7,7.42-6.47,10.31c-2.78,2.9-6.06,5.14-9.86,6.74-3.8,1.6-7.96,2.4-12.49,2.4ZM595.02,260.71c3.86,0,7.39-.69,10.58-2.08,3.2-1.39,5.97-3.33,8.32-5.84,2.35-2.5,4.16-5.44,5.43-8.82,1.27-3.38,1.9-7.09,1.9-11.13s-.63-7.77-1.9-11.17c-1.27-3.41-3.08-6.38-5.43-8.91-2.35-2.53-5.13-4.49-8.32-5.88-3.2-1.39-6.73-2.08-10.58-2.08s-7.3.69-10.5,2.08c-3.2,1.39-5.97,3.35-8.32,5.88s-4.16,5.5-5.43,8.91c-1.27,3.41-1.9,7.13-1.9,11.17,0,5.37,1.13,10.15,3.39,14.34,2.26,4.19,5.35,7.5,9.27,9.91,3.92,2.41,8.41,3.62,13.48,3.62Z"/>
      <path class="cls-1" d="M667.31,265.33c-4.58,0-8.79-.8-12.62-2.4-3.83-1.6-7.18-3.85-10.04-6.74-2.87-2.9-5.08-6.32-6.65-10.27-1.57-3.95-2.35-8.25-2.35-12.89s.78-9.14,2.35-13.12c1.57-3.98,3.77-7.43,6.6-10.36,2.83-2.92,6.17-5.2,10-6.83,3.83-1.63,8.04-2.44,12.62-2.44,3.38,0,6.56.48,9.54,1.45,2.99.97,5.71,2.31,8.19,4.03,2.47,1.72,4.61,3.73,6.42,6.02l-3.17,3.17c-2.59-3.08-5.69-5.52-9.27-7.33-3.59-1.81-7.5-2.71-11.72-2.71-3.86,0-7.42.71-10.68,2.13-3.26,1.42-6.09,3.38-8.5,5.88-2.41,2.5-4.27,5.47-5.56,8.91-1.3,3.44-1.95,7.18-1.95,11.22s.68,7.57,2.04,10.95c1.36,3.38,3.26,6.32,5.7,8.82,2.44,2.5,5.29,4.45,8.55,5.84,3.26,1.39,6.81,2.08,10.68,2.08s6.97-.56,9.86-1.67c2.9-1.12,5.38-2.71,7.46-4.79,2.08-2.08,3.66-4.51,4.75-7.28,1.09-2.77,1.63-5.85,1.63-9.23v-1.72l.81.72h-24.16v-4.7h28.23c.06.42.09.81.09,1.18v1.81c0,4.83-.68,9.11-2.04,12.85-1.36,3.74-3.3,6.91-5.83,9.5-2.53,2.59-5.58,4.57-9.14,5.93-3.56,1.36-7.51,2.04-11.85,2.04Z"/>
      <path class="cls-1" d="M709.83,264.42v-63.33h24.16c3.5,0,6.59.78,9.27,2.35,2.68,1.57,4.79,3.74,6.33,6.51,1.54,2.77,2.31,5.97,2.31,9.59s-.77,7-2.31,9.95c-1.54,2.96-3.65,5.28-6.33,6.97-2.68,1.69-5.78,2.53-9.27,2.53h-19.45v25.42h-4.71ZM714.53,234.39h20.17c2.47,0,4.63-.63,6.47-1.9s3.27-3.03,4.3-5.29c1.02-2.26,1.54-4.84,1.54-7.74,0-2.71-.56-5.11-1.67-7.19-1.12-2.08-2.67-3.69-4.66-4.84-1.99-1.15-4.31-1.72-6.97-1.72h-19.18v28.68ZM748.46,264.42l-16.01-27.5,4.98-1.27,16.74,28.77h-5.7Z"/>
      <path class="cls-1" d="M760.04,264.42l24.34-63.33h5.52l24.34,63.33h-5.25l-16.38-42.97c-.18-.42-.5-1.31-.95-2.67-.45-1.36-1.01-2.92-1.67-4.7-.66-1.78-1.33-3.56-1.99-5.34-.66-1.78-1.24-3.3-1.72-4.57l1.36.09c-.36,1.09-.83,2.44-1.4,4.07-.57,1.63-1.19,3.32-1.86,5.07-.66,1.75-1.27,3.36-1.81,4.84-.54,1.48-.96,2.61-1.27,3.39l-16.19,42.79h-5.07ZM769.72,245.43l1.72-4.7h31.03l1.99,4.7h-34.74Z"/>
      <path class="cls-1" d="M825.82,264.42v-63.33h23.88c3.38,0,6.35.78,8.91,2.35,2.56,1.57,4.58,3.71,6.06,6.42,1.48,2.71,2.22,5.85,2.22,9.41,0,3.74-.74,7.09-2.22,10.04-1.48,2.96-3.5,5.29-6.06,7.01-2.56,1.72-5.54,2.58-8.91,2.58h-19.18v25.51h-4.71ZM830.52,234.3h19.36c2.35,0,4.45-.66,6.29-1.99,1.84-1.33,3.29-3.11,4.34-5.34,1.05-2.23,1.58-4.79,1.58-7.69,0-2.65-.53-4.99-1.58-7.01-1.06-2.02-2.5-3.62-4.34-4.8-1.84-1.18-3.94-1.76-6.29-1.76h-19.36v28.59Z"/>
      <path class="cls-1" d="M881.18,264.42v-63.33h4.71v63.33h-4.71ZM883.36,235.2v-4.7h43.25v4.7h-43.25ZM924.43,264.42v-63.33h4.7v63.33h-4.7Z"/>
      <path class="cls-1" d="M948.32,264.42v-63.33h37v4.61h-32.3v54.1h31.85v4.61h-36.55ZM950.67,234.03v-4.61h29.49v4.61h-29.49Z"/>
      <path class="cls-1" d="M1001.06,264.42v-63.33h24.16c3.5,0,6.59.78,9.27,2.35,2.68,1.57,4.79,3.74,6.33,6.51,1.54,2.77,2.31,5.97,2.31,9.59s-.77,7-2.31,9.95c-1.54,2.96-3.65,5.28-6.33,6.97-2.68,1.69-5.78,2.53-9.27,2.53h-19.45v25.42h-4.71ZM1005.77,234.39h20.17c2.47,0,4.63-.63,6.47-1.9s3.27-3.03,4.3-5.29c1.02-2.26,1.54-4.84,1.54-7.74,0-2.71-.56-5.11-1.67-7.19-1.12-2.08-2.67-3.69-4.66-4.84-1.99-1.15-4.31-1.72-6.97-1.72h-19.18v28.68ZM1039.69,264.42l-16.01-27.5,4.98-1.27,16.74,28.77h-5.7Z"/>
    </g>
  </g>
  <g>
    <rect class="cls-2" x="261.54" y="75" width="42.4" height="212"/>
    <rect class="cls-2" x="134.34" y="75" width="42.4" height="212"/>
    <g>
      <rect class="cls-2" x="70.74" y="75" width="42.4" height="42.4"/>
      <rect class="cls-2" x="70.74" y="133.99" width="42.4" height="153.01"/>
    </g>
    <rect class="cls-2" x="197.94" y="181" width="42.4" height="42.4"/>
    <rect class="cls-2" x="197.94" y="75" width="42.4" height="84.8"/>
    <rect class="cls-2" x="197.94" y="244.6" width="42.4" height="42.4"/>
  </g>
</svg>